<mxfile host="app.diagrams.net" modified="2024-07-08T18:29:52.264Z" agent="Mozilla/5.0 (X11; Linux x86_64; rv:109.0) Gecko/20100101 Firefox/115.0" etag="FX4bE0CRK9WDV3OZfe0W" version="24.6.4" type="device">
  <diagram name="Page-1" id="NU-SdLu3wrM1XWiGg_Hs">
    <mxGraphModel dx="1434" dy="802" grid="1" gridSize="10" guides="1" tooltips="1" connect="1" arrows="1" fold="1" page="1" pageScale="1" pageWidth="850" pageHeight="1100" math="0" shadow="0">
      <root>
        <mxCell id="0" />
        <mxCell id="1" parent="0" />
        <mxCell id="0WRzadt97zoSKVtm6kNQ-2" value="&lt;div&gt;&lt;font face=&quot;Courier New&quot;&gt;vmovdqu &lt;font color=&quot;#e5a50a&quot;&gt;ymm4&lt;/font&gt;, &lt;font color=&quot;#613583&quot;&gt;ymmword&lt;/font&gt; [&lt;font color=&quot;#26a269&quot;&gt;rsi&lt;/font&gt;]&amp;nbsp;&lt;/font&gt;&lt;/div&gt;&lt;div&gt;&lt;font face=&quot;Courier New&quot;&gt;vmovdqu &lt;font color=&quot;#e5a50a&quot;&gt;ymm5&lt;/font&gt;, &lt;font color=&quot;#613583&quot;&gt;ymmword&lt;/font&gt; [&lt;font color=&quot;#26a269&quot;&gt;rsi&lt;/font&gt;+&lt;font color=&quot;#1a5fb4&quot;&gt;0x20&lt;/font&gt;]&amp;nbsp;&lt;/font&gt;&lt;/div&gt;&lt;div&gt;&lt;font face=&quot;Courier New&quot;&gt;vmovdqu &lt;font color=&quot;#e5a50a&quot;&gt;ymm6&lt;/font&gt;, &lt;font color=&quot;#613583&quot;&gt;ymmword&lt;/font&gt; [&lt;font color=&quot;#26a269&quot;&gt;rsi&lt;/font&gt;+&lt;font color=&quot;#1a5fb4&quot;&gt;0x40&lt;/font&gt;]&amp;nbsp;&lt;/font&gt;&lt;/div&gt;&lt;div&gt;&lt;font face=&quot;Courier New&quot;&gt;vmovdqu &lt;font color=&quot;#e5a50a&quot;&gt;ymm7&lt;/font&gt;, &lt;font color=&quot;#613583&quot;&gt;ymmword&lt;/font&gt; [&lt;font color=&quot;#26a269&quot;&gt;rsi&lt;/font&gt;+&lt;font color=&quot;#1a5fb4&quot;&gt;0x60&lt;/font&gt;]&lt;br&gt;&lt;/font&gt;&lt;/div&gt;" style="text;html=1;align=left;verticalAlign=middle;whiteSpace=wrap;rounded=0;strokeColor=none;" vertex="1" parent="1">
          <mxGeometry x="260" y="200" width="240" height="70" as="geometry" />
        </mxCell>
        <mxCell id="0WRzadt97zoSKVtm6kNQ-4" value="&lt;font style=&quot;font-size: 25px;&quot; face=&quot;Helvetica&quot;&gt;REVERSING memcpy() AGAIN&lt;/font&gt;" style="text;html=1;align=center;verticalAlign=middle;whiteSpace=wrap;rounded=0;" vertex="1" parent="1">
          <mxGeometry x="200" y="290" width="360" height="40" as="geometry" />
        </mxCell>
      </root>
    </mxGraphModel>
  </diagram>
</mxfile>
